<svg width="19" height="18" viewBox="0 0 19 18" fill="none" xmlns="http://www.w3.org/2000/svg">
<path d="M4.8252 4.75C4.8252 4.94891 4.75408 5.13968 4.6275 5.28033C4.50091 5.42098 4.32922 5.5 4.1502 5.5C3.97118 5.5 3.79949 5.42098 3.6729 5.28033C3.54632 5.13968 3.4752 4.94891 3.4752 4.75C3.4752 4.55109 3.54632 4.36032 3.6729 4.21967C3.79949 4.07902 3.97118 4 4.1502 4C4.32922 4 4.50091 4.07902 4.6275 4.21967C4.75408 4.36032 4.8252 4.55109 4.8252 4.75ZM4.1529 12C3.97388 12 3.80219 12.079 3.6756 12.2197C3.54902 12.3603 3.4779 12.5511 3.4779 12.75C3.4779 12.9489 3.54902 13.1397 3.6756 13.2803C3.80219 13.421 3.97388 13.5 4.1529 13.5H8.6529C8.83192 13.5 9.00361 13.421 9.1302 13.2803C9.25678 13.1397 9.3279 12.9489 9.3279 12.75C9.3279 12.5511 9.25678 12.3603 9.1302 12.2197C9.00361 12.079 8.83192 12 8.6529 12H4.1529ZM3.4779 8.75C3.4779 8.55109 3.54902 8.36032 3.6756 8.21967C3.80219 8.07902 3.97388 8 4.1529 8H8.6529C8.74154 8 8.82932 8.0194 8.91121 8.05709C8.99311 8.09478 9.06752 8.15003 9.1302 8.21967C9.19288 8.28931 9.2426 8.37199 9.27652 8.46299C9.31044 8.55398 9.3279 8.65151 9.3279 8.75C9.3279 8.84849 9.31044 8.94602 9.27652 9.03701C9.2426 9.12801 9.19288 9.21069 9.1302 9.28033C9.06752 9.34997 8.99311 9.40522 8.91121 9.44291C8.82932 9.4806 8.74154 9.5 8.6529 9.5H4.1529C3.97388 9.5 3.80219 9.42098 3.6756 9.28033C3.54902 9.13968 3.4779 8.94891 3.4779 8.75ZM12.45 18C12.8612 17.9969 13.2588 17.8363 13.5759 17.5454C13.893 17.2545 14.1101 16.851 14.1906 16.403L14.6226 14H17.175C17.5927 14 17.9933 13.8156 18.2887 13.4874C18.5841 13.1592 18.75 12.7141 18.75 12.25V6.261C18.75 5.66325 18.537 5.08981 18.1575 4.66611C17.778 4.2424 17.263 4.00291 16.725 4V3.996H12V2.25C12 1.65326 11.7867 1.08097 11.4069 0.65901C11.0271 0.237053 10.5121 0 9.975 0H2.775C2.23794 0 1.72287 0.237053 1.34311 0.65901C0.963348 1.08097 0.75 1.65326 0.75 2.25V14.75C0.75 15.612 1.05817 16.4386 1.60671 17.0481C2.15526 17.6576 2.89924 18 3.675 18H12.4374H12.45ZM2.1 2.25C2.1 2.05109 2.17112 1.86032 2.2977 1.71967C2.42429 1.57902 2.59598 1.5 2.775 1.5H9.975C10.154 1.5 10.3257 1.57902 10.4523 1.71967C10.5789 1.86032 10.65 2.05109 10.65 2.25V16.014C10.65 16.181 10.668 16.344 10.704 16.5H3.675C3.25728 16.5 2.85668 16.3156 2.56131 15.9874C2.26594 15.6592 2.1 15.2141 2.1 14.75V2.25ZM12 5.496H14.799C14.7655 5.60102 14.739 5.70865 14.7198 5.818L12.8667 16.109C12.8458 16.2277 12.7859 16.3335 12.6986 16.4058C12.6112 16.478 12.5028 16.5115 12.3945 16.4996C12.2861 16.4877 12.1856 16.4314 12.1127 16.3416C12.0398 16.2518 11.9996 16.135 12 16.014V5.496ZM16.0437 6.112C16.0773 5.927 16.1715 5.76245 16.3081 5.6503C16.4447 5.53815 16.6139 5.4864 16.7829 5.50509C16.9519 5.52378 17.1087 5.61159 17.2227 5.75146C17.3367 5.89132 17.3999 6.07328 17.4 6.262V12.25C17.4 12.3163 17.3763 12.3799 17.3341 12.4268C17.2919 12.4737 17.2347 12.5 17.175 12.5H14.8935L16.0437 6.112Z" fill="#AAA9A9"/>
</svg>
