<svg width="31" height="42" viewBox="0 0 31 42" fill="none" xmlns="http://www.w3.org/2000/svg">
<path d="M6.5 19V7L15.5 1L24.5 7V19H17.75V12H13.25V19H6.5Z" fill="white"/>
<path d="M6.48 31.02V38H5.08V35.03H2.09V38H0.69V31.02H2.09V33.89H5.08V31.02H6.48ZM10.318 38.09C9.78464 38.09 9.30464 37.9733 8.87797 37.74C8.4513 37.5 8.11464 37.1633 7.86797 36.73C7.62797 36.2967 7.50797 35.7967 7.50797 35.23C7.50797 34.6633 7.6313 34.1633 7.87797 33.73C8.1313 33.2967 8.47464 32.9633 8.90797 32.73C9.3413 32.49 9.82464 32.37 10.358 32.37C10.8913 32.37 11.3746 32.49 11.808 32.73C12.2413 32.9633 12.5813 33.2967 12.828 33.73C13.0813 34.1633 13.208 34.6633 13.208 35.23C13.208 35.7967 13.078 36.2967 12.818 36.73C12.5646 37.1633 12.218 37.5 11.778 37.74C11.3446 37.9733 10.858 38.09 10.318 38.09ZM10.318 36.87C10.5713 36.87 10.808 36.81 11.028 36.69C11.2546 36.5633 11.4346 36.3767 11.568 36.13C11.7013 35.8833 11.768 35.5833 11.768 35.23C11.768 34.7033 11.628 34.3 11.348 34.02C11.0746 33.7333 10.738 33.59 10.338 33.59C9.93797 33.59 9.6013 33.7333 9.32797 34.02C9.0613 34.3 8.92797 34.7033 8.92797 35.23C8.92797 35.7567 9.05797 36.1633 9.31797 36.45C9.58464 36.73 9.91797 36.87 10.318 36.87ZM21.1149 32.38C21.7949 32.38 22.3416 32.59 22.7549 33.01C23.1749 33.4233 23.3849 34.0033 23.3849 34.75V38H21.9849V34.94C21.9849 34.5067 21.8749 34.1767 21.6549 33.95C21.4349 33.7167 21.1349 33.6 20.7549 33.6C20.3749 33.6 20.0716 33.7167 19.8449 33.95C19.6249 34.1767 19.5149 34.5067 19.5149 34.94V38H18.1149V34.94C18.1149 34.5067 18.0049 34.1767 17.7849 33.95C17.5649 33.7167 17.2649 33.6 16.8849 33.6C16.4983 33.6 16.1916 33.7167 15.9649 33.95C15.7449 34.1767 15.6349 34.5067 15.6349 34.94V38H14.2349V32.46H15.6349V33.13C15.8149 32.8967 16.0449 32.7133 16.3249 32.58C16.6116 32.4467 16.9249 32.38 17.2649 32.38C17.6983 32.38 18.0849 32.4733 18.4249 32.66C18.7649 32.84 19.0283 33.1 19.2149 33.44C19.3949 33.12 19.6549 32.8633 19.9949 32.67C20.3416 32.4767 20.7149 32.38 21.1149 32.38ZM29.8634 35.11C29.8634 35.31 29.8501 35.49 29.8234 35.65H25.7734C25.8068 36.05 25.9468 36.3633 26.1934 36.59C26.4401 36.8167 26.7434 36.93 27.1034 36.93C27.6234 36.93 27.9934 36.7067 28.2134 36.26H29.7234C29.5634 36.7933 29.2568 37.2333 28.8034 37.58C28.3501 37.92 27.7934 38.09 27.1334 38.09C26.6001 38.09 26.1201 37.9733 25.6934 37.74C25.2734 37.5 24.9434 37.1633 24.7034 36.73C24.4701 36.2967 24.3534 35.7967 24.3534 35.23C24.3534 34.6567 24.4701 34.1533 24.7034 33.72C24.9368 33.2867 25.2634 32.9533 25.6834 32.72C26.1034 32.4867 26.5868 32.37 27.1334 32.37C27.6601 32.37 28.1301 32.4833 28.5434 32.71C28.9634 32.9367 29.2868 33.26 29.5134 33.68C29.7468 34.0933 29.8634 34.57 29.8634 35.11ZM28.4134 34.71C28.4068 34.35 28.2768 34.0633 28.0234 33.85C27.7701 33.63 27.4601 33.52 27.0934 33.52C26.7468 33.52 26.4534 33.6267 26.2134 33.84C25.9801 34.0467 25.8368 34.3367 25.7834 34.71H28.4134Z" fill="white"/>
</svg>
