<svg width="19" height="18" viewBox="0 0 19 18" fill="none" xmlns="http://www.w3.org/2000/svg">
<path d="M0.749908 1.73077C0.749908 1.27174 0.919232 0.831513 1.22063 0.506931C1.52203 0.182348 1.93081 0 2.35705 0H3.64277C4.06901 0 4.47779 0.182348 4.77919 0.506931C5.08059 0.831513 5.24991 1.27174 5.24991 1.73077V16.2692C5.24991 16.7283 5.08059 17.1685 4.77919 17.4931C4.47779 17.8177 4.06901 18 3.64277 18H2.35705C1.93081 18 1.52203 17.8177 1.22063 17.4931C0.919232 17.1685 0.749908 16.7283 0.749908 16.2692V1.73077ZM2.35705 1.38462C2.2718 1.38462 2.19005 1.42109 2.12977 1.486C2.06949 1.55092 2.03562 1.63896 2.03562 1.73077V16.2692C2.03562 16.361 2.06949 16.4491 2.12977 16.514C2.19005 16.5789 2.2718 16.6154 2.35705 16.6154H3.64277C3.72801 16.6154 3.80977 16.5789 3.87005 16.514C3.93033 16.4491 3.96419 16.361 3.96419 16.2692V1.73077C3.96419 1.63896 3.93033 1.55092 3.87005 1.486C3.80977 1.42109 3.72801 1.38462 3.64277 1.38462H2.35705ZM6.53562 1.73077C6.53562 1.27174 6.70495 0.831513 7.00634 0.506931C7.30774 0.182348 7.71652 0 8.14277 0H9.42848C9.85472 0 10.2635 0.182348 10.5649 0.506931C10.8663 0.831513 11.0356 1.27174 11.0356 1.73077V16.2692C11.0356 16.7283 10.8663 17.1685 10.5649 17.4931C10.2635 17.8177 9.85472 18 9.42848 18H8.14277C7.71652 18 7.30774 17.8177 7.00634 17.4931C6.70495 17.1685 6.53562 16.7283 6.53562 16.2692V1.73077ZM8.14277 1.38462C8.05752 1.38462 7.97576 1.42109 7.91548 1.486C7.8552 1.55092 7.82134 1.63896 7.82134 1.73077V16.2692C7.82134 16.361 7.8552 16.4491 7.91548 16.514C7.97576 16.5789 8.05752 16.6154 8.14277 16.6154H9.42848C9.51373 16.6154 9.59548 16.5789 9.65576 16.514C9.71604 16.4491 9.74991 16.361 9.74991 16.2692V1.73077C9.74991 1.63896 9.71604 1.55092 9.65576 1.486C9.59548 1.42109 9.51373 1.38462 9.42848 1.38462H8.14277ZM12.8356 3.18808C12.0031 3.43592 11.5088 4.38785 11.7318 5.31346L14.4768 16.713C14.7006 17.6393 15.5556 18.1883 16.3881 17.9405L17.5934 17.5805C18.4253 17.3333 18.9196 16.3814 18.6966 15.4551L15.9516 4.05692C15.7278 3.13062 14.8728 2.58162 14.0403 2.82946L12.8356 3.18808ZM12.9372 4.95415C12.9151 4.86623 12.9259 4.77249 12.9672 4.69303C13.0086 4.61357 13.0772 4.55471 13.1583 4.52908L14.3637 4.16977C14.4038 4.15839 14.4455 4.15575 14.4866 4.162C14.5276 4.16825 14.5671 4.18326 14.6026 4.20615C14.6382 4.22905 14.6692 4.25936 14.6937 4.29532C14.7182 4.33127 14.7359 4.37215 14.7456 4.41554L17.4906 15.8151C17.5127 15.9029 17.502 15.9966 17.4608 16.076C17.4195 16.1555 17.3511 16.2144 17.2701 16.2402L16.0647 16.5995C16.0246 16.6108 15.9828 16.6135 15.9418 16.6072C15.9008 16.601 15.8613 16.586 15.8258 16.5631C15.7902 16.5402 15.7592 16.5099 15.7347 16.4739C15.7101 16.438 15.6925 16.3971 15.6828 16.3537L12.9372 4.95415Z" fill="#AAA9A9"/>
</svg>
