<svg width="37" height="42" viewBox="0 0 37 42" fill="none" xmlns="http://www.w3.org/2000/svg">
<path d="M24.035 15.535L27.5 19M26.4999 9.52863C26.4999 14.239 22.694 18.0573 18.0005 18.0573C13.3059 18.0573 9.5 14.239 9.5 9.52975C9.5 4.81712 13.3059 1 17.9994 1C22.694 1 26.4999 4.81825 26.4999 9.52863Z" stroke="#AAA9A9" stroke-width="1.5" stroke-linecap="round" stroke-linejoin="round"/>
<path d="M3.6 38.07C3.11333 38.07 2.67333 37.9867 2.28 37.82C1.89333 37.6533 1.58667 37.4133 1.36 37.1C1.13333 36.7867 1.01667 36.4167 1.01 35.99H2.51C2.53 36.2767 2.63 36.5033 2.81 36.67C2.99667 36.8367 3.25 36.92 3.57 36.92C3.89667 36.92 4.15333 36.8433 4.34 36.69C4.52667 36.53 4.62 36.3233 4.62 36.07C4.62 35.8633 4.55667 35.6933 4.43 35.56C4.30333 35.4267 4.14333 35.3233 3.95 35.25C3.76333 35.17 3.50333 35.0833 3.17 34.99C2.71667 34.8567 2.34667 34.7267 2.06 34.6C1.78 34.4667 1.53667 34.27 1.33 34.01C1.13 33.7433 1.03 33.39 1.03 32.95C1.03 32.5367 1.13333 32.1767 1.34 31.87C1.54667 31.5633 1.83667 31.33 2.21 31.17C2.58333 31.0033 3.01 30.92 3.49 30.92C4.21 30.92 4.79333 31.0967 5.24 31.45C5.69333 31.7967 5.94333 32.2833 5.99 32.91H4.45C4.43667 32.67 4.33333 32.4733 4.14 32.32C3.95333 32.16 3.70333 32.08 3.39 32.08C3.11667 32.08 2.89667 32.15 2.73 32.29C2.57 32.43 2.49 32.6333 2.49 32.9C2.49 33.0867 2.55 33.2433 2.67 33.37C2.79667 33.49 2.95 33.59 3.13 33.67C3.31667 33.7433 3.57667 33.83 3.91 33.93C4.36333 34.0633 4.73333 34.1967 5.02 34.33C5.30667 34.4633 5.55333 34.6633 5.76 34.93C5.96667 35.1967 6.07 35.5467 6.07 35.98C6.07 36.3533 5.97333 36.7 5.78 37.02C5.58667 37.34 5.30333 37.5967 4.93 37.79C4.55667 37.9767 4.11333 38.07 3.6 38.07ZM12.4338 35.11C12.4338 35.31 12.4204 35.49 12.3938 35.65H8.34375C8.37708 36.05 8.51708 36.3633 8.76375 36.59C9.01042 36.8167 9.31375 36.93 9.67375 36.93C10.1938 36.93 10.5638 36.7067 10.7838 36.26H12.2938C12.1338 36.7933 11.8271 37.2333 11.3738 37.58C10.9204 37.92 10.3638 38.09 9.70375 38.09C9.17042 38.09 8.69042 37.9733 8.26375 37.74C7.84375 37.5 7.51375 37.1633 7.27375 36.73C7.04042 36.2967 6.92375 35.7967 6.92375 35.23C6.92375 34.6567 7.04042 34.1533 7.27375 33.72C7.50708 33.2867 7.83375 32.9533 8.25375 32.72C8.67375 32.4867 9.15708 32.37 9.70375 32.37C10.2304 32.37 10.7004 32.4833 11.1138 32.71C11.5338 32.9367 11.8571 33.26 12.0838 33.68C12.3171 34.0933 12.4338 34.57 12.4338 35.11ZM10.9838 34.71C10.9771 34.35 10.8471 34.0633 10.5938 33.85C10.3404 33.63 10.0304 33.52 9.66375 33.52C9.31708 33.52 9.02375 33.6267 8.78375 33.84C8.55042 34.0467 8.40708 34.3367 8.35375 34.71H10.9838ZM13.0956 35.21C13.0956 34.65 13.2056 34.1533 13.4256 33.72C13.6523 33.2867 13.9556 32.9533 14.3356 32.72C14.7223 32.4867 15.1523 32.37 15.6256 32.37C16.039 32.37 16.399 32.4533 16.7056 32.62C17.019 32.7867 17.269 32.9967 17.4556 33.25V32.46H18.8656V38H17.4556V37.19C17.2756 37.45 17.0256 37.6667 16.7056 37.84C16.3923 38.0067 16.029 38.09 15.6156 38.09C15.149 38.09 14.7223 37.97 14.3356 37.73C13.9556 37.49 13.6523 37.1533 13.4256 36.72C13.2056 36.28 13.0956 35.7767 13.0956 35.21ZM17.4556 35.23C17.4556 34.89 17.389 34.6 17.2556 34.36C17.1223 34.1133 16.9423 33.9267 16.7156 33.8C16.489 33.6667 16.2456 33.6 15.9856 33.6C15.7256 33.6 15.4856 33.6633 15.2656 33.79C15.0456 33.9167 14.8656 34.1033 14.7256 34.35C14.5923 34.59 14.5256 34.8767 14.5256 35.21C14.5256 35.5433 14.5923 35.8367 14.7256 36.09C14.8656 36.3367 15.0456 36.5267 15.2656 36.66C15.4923 36.7933 15.7323 36.86 15.9856 36.86C16.2456 36.86 16.489 36.7967 16.7156 36.67C16.9423 36.5367 17.1223 36.35 17.2556 36.11C17.389 35.8633 17.4556 35.57 17.4556 35.23ZM21.633 33.32C21.813 33.0267 22.0463 32.7967 22.333 32.63C22.6263 32.4633 22.9596 32.38 23.333 32.38V33.85H22.963C22.523 33.85 22.1896 33.9533 21.963 34.16C21.743 34.3667 21.633 34.7267 21.633 35.24V38H20.233V32.46H21.633V33.32ZM23.9159 35.23C23.9159 34.6567 24.0326 34.1567 24.2659 33.73C24.4993 33.2967 24.8226 32.9633 25.2359 32.73C25.6493 32.49 26.1226 32.37 26.6559 32.37C27.3426 32.37 27.9093 32.5433 28.3559 32.89C28.8093 33.23 29.1126 33.71 29.2659 34.33H27.7559C27.6759 34.09 27.5393 33.9033 27.3459 33.77C27.1593 33.63 26.9259 33.56 26.6459 33.56C26.2459 33.56 25.9293 33.7067 25.6959 34C25.4626 34.2867 25.3459 34.6967 25.3459 35.23C25.3459 35.7567 25.4626 36.1667 25.6959 36.46C25.9293 36.7467 26.2459 36.89 26.6459 36.89C27.2126 36.89 27.5826 36.6367 27.7559 36.13H29.2659C29.1126 36.73 28.8093 37.2067 28.3559 37.56C27.9026 37.9133 27.3359 38.09 26.6559 38.09C26.1226 38.09 25.6493 37.9733 25.2359 37.74C24.8226 37.5 24.4993 37.1667 24.2659 36.74C24.0326 36.3067 23.9159 35.8033 23.9159 35.23ZM33.4116 32.38C33.8316 32.38 34.2049 32.4733 34.5316 32.66C34.8582 32.84 35.1116 33.11 35.2916 33.47C35.4782 33.8233 35.5716 34.25 35.5716 34.75V38H34.1716V34.94C34.1716 34.5 34.0616 34.1633 33.8416 33.93C33.6216 33.69 33.3216 33.57 32.9416 33.57C32.5549 33.57 32.2482 33.69 32.0216 33.93C31.8016 34.1633 31.6916 34.5 31.6916 34.94V38H30.2916V30.6H31.6916V33.15C31.8716 32.91 32.1116 32.7233 32.4116 32.59C32.7116 32.45 33.0449 32.38 33.4116 32.38Z" fill="#AAA9A9"/>
</svg>
