<svg width="23" height="10" viewBox="0 0 23 10" fill="none" xmlns="http://www.w3.org/2000/svg">
<path d="M11.06 1.51501V9.64501H19.82C21.67 9.51501 22.5 8.37501 22.5 6.97501C22.5 5.49501 21.38 4.30501 19.88 4.30501C19.5 4.30501 19.18 4.38501 18.85 4.52501C18.61 2.18501 16.62 0.355011 14.17 0.355011C13 0.355011 11.89 0.795011 11.06 1.51501ZM10.18 2.53501C9.88 2.35501 9.56 2.21501 9.21 2.14501V9.64501H10.6V1.98501C10.45 2.14501 10.31 2.34501 10.18 2.53501ZM7.83 1.99501V9.64501H8.75V2.02501C8.56 1.99501 8.37 1.98501 8.17 1.98501C8.05 1.98501 7.94 1.98501 7.83 1.99501ZM6 2.64501V9.64501H6.91V2.18501C6.58 2.29501 6.27 2.45501 6 2.64501ZM4.33 5.14501C4.27 5.14501 4.21 5.08501 4.14 5.05501V9.64501H5.06V3.50501C4.69 3.98501 4.44 4.55501 4.33 5.14501ZM2.29 4.86501V9.55501C2.5 9.61501 2.74 9.64501 3 9.64501H3.22V4.78501C3.14 4.77501 3.06 4.76501 3 4.76501C2.74 4.76501 2.5 4.80501 2.29 4.86501ZM0.5 7.20501C0.5 7.95501 0.84 8.61501 1.37 9.06501V5.35501C0.84 5.79501 0.5 6.46501 0.5 7.20501Z" fill="#AAA9A9"/>
</svg>
